Coordinates
version=1
nRows=17
nColumns=40
inDegrees=yes

Units are S.I. units (second, meters, Newtons, ...)
Angles are in degrees.

endheader
time	pelvis_tilt	pelvis_list	pelvis_rotation	pelvis_tx	pelvis_ty	pelvis_tz	hip_flexion_r	hip_adduction_r	hip_rotation_r	knee_angle_r	knee_angle_r_beta	ankle_angle_r	subtalar_angle_r	mtp_angle_r	hip_flexion_l	hip_adduction_l	hip_rotation_l	knee_angle_l	knee_angle_l_beta	ankle_angle_l	subtalar_angle_l	mtp_angle_l	lumbar_extension	lumbar_bending	lumbar_rotation	arm_flex_r	arm_add_r	arm_rot_r	elbow_flex_r	pro_sup_r	wrist_flex_r	wrist_dev_r	arm_flex_l	arm_add_l	arm_rot_l	elbow_flex_l	pro_sup_l	wrist_flex_l	wrist_dev_l
     16.01000000	     -1.52732686	     -4.05505304	      5.79907933	      1.03151191	      0.93521308	      0.52355849	     10.26858065	      2.85015766	    -18.52463793	     15.56008305	     15.56008305	     10.54545668	      6.50948695	     -4.86099879	     31.77479067	    -12.83083027	     -2.29852731	     47.15488238	     47.15488238	      9.15052236	    -18.02976533	     12.79813869	    -12.31376687	      6.35699449	      2.72663889	     23.60285783	    -19.35814247	     -0.52651104	     54.61941643	     45.79415962	      0.00000000	      0.00000000	      1.12845043	     -8.18243891	    -14.51051025	     34.91405879	     45.98775804	      0.00000000	      0.00000000
     16.02350000	     -1.68909710	     -4.02398397	      5.90135245	      1.03010320	      0.93519641	      0.52385214	     10.03009831	      2.87027146	    -18.61745176	     15.36221561	     15.36221561	     10.73009794	      6.58480842	     -4.93916554	     32.27297717	    -12.43765882	     -2.24536926	     44.00128021	     44.00128021	      9.10421641	    -17.23594498	     12.61552321	    -12.21696715	      6.46091084	      2.95655584	     24.88897008	    -19.35661613	     -0.65969571	     55.30320002	     45.77913553	      0.00000000	      0.00000000	      0.76959672	     -8.10212583	    -14.53401027	     34.65491140	     45.99028822	      0.00000000	      0.00000000
     16.03700000	     -1.76812897	     -4.05961449	      6.00522692	      1.02888721	      0.93511914	      0.52418158	      9.66636481	      2.94206375	    -18.99235983	     15.12483728	     15.12483728	     10.90847488	      7.15231334	     -5.12918206	     32.28072180	    -12.17258548	     -2.34494002	     40.12178443	     40.12178443	      7.15602804	    -16.63134528	      7.74177940	    -12.17922580	      6.62571652	      3.08516516	     26.25498480	    -19.24042366	     -0.99974015	     56.19141000	     45.74555410	      0.00000000	      0.00000000	      0.44343733	     -7.96073815	    -14.77608933	     34.12051081	     46.05117983	      0.00000000	      0.00000000
     16.05050000	     -1.88901528	     -4.03331929	      6.09869557	      1.02763816	      0.93502112	      0.52441697	      9.40519185	      2.97627804	    -19.03291591	     14.97187187	     14.97187187	     11.13455464	      7.16205133	     -5.20465654	     32.32116645	    -11.76705237	     -2.29018616	     36.46407715	     36.46407715	      6.96939542	    -15.28485976	      7.89487921	    -12.11315385	      6.70114568	      3.31990213	     27.48876546	    -19.26207168	     -1.11238105	     56.78827920	     45.73291603	      0.00000000	      0.00000000	      0.09688805	     -7.86768619	    -14.75691680	     33.90367609	     46.04722348	      0.00000000	      0.00000000
     16.06400000	     -2.03153955	     -4.05223344	      6.19394462	      1.02644533	      0.93477087	      0.52453546	      9.18227039	      3.03874125	    -19.11522620	     14.83800932	     14.83800932	     11.35248879	      7.22987074	     -5.29845581	     32.31777221	    -11.40896339	     -2.19699069	     32.87035555	     32.87035555	      6.74874186	    -13.61882781	      8.10064986	    -11.98268411	      6.85183625	      3.53809884	     28.70765668	    -19.28637325	     -1.22614650	     57.37141149	     45.72173137	      0.00000000	      0.00000000	     -0.24600051	     -7.72212275	    -14.72174031	     33.68624044	     46.03962248	      0.00000000	      0.00000000
     16.07750000	     -2.02109908	     -4.03187723	      6.24856894	      1.02548258	      0.93472560	      0.52462407	      8.76408988	      3.08204653	    -19.16193876	     14.67892666	     14.67892666	     11.59035721	      7.38385872	     -5.39568462	     32.00502570	    -11.09846832	     -2.25716275	     29.33449590	     29.33449590	      6.48531343	    -11.64975983	      8.17448597	    -12.02871289	      6.93572665	      3.62888617	     29.85841683	    -19.10035294	     -1.31396684	     58.01989931	     45.70610886	      0.00000000	      0.00000000	     -0.62932179	     -7.72025719	    -14.68909951	     33.38198925	     46.03303014	      0.00000000	      0.00000000
     16.09100000	     -2.02144440	     -4.03864424	      6.30441440	      1.02459276	      0.93459484	      0.52458170	      8.36275034	      3.14902613	    -19.19586538	     14.52195897	     14.52195897	     11.83014735	      7.49595780	     -5.49357515	     31.72016670	    -10.82906154	     -2.32745130	     26.10466877	     26.10466877	      6.23268387	     -9.56749140	      8.24593710	    -12.04818480	      7.04986865	      3.68675208	     30.92305718	    -18.91719371	     -1.39201866	     58.63819826	     45.69057114	      0.00000000	      0.00000000	     -0.98974647	     -7.68019087	    -14.64455800	     33.08479424	     46.02530131	      0.00000000	      0.00000000
     16.10450000	     -2.01278176	     -4.06590407	      6.36676338	      1.02381227	      0.93443303	      0.52440597	      7.95374808	      3.23988661	    -19.19764358	     14.37160681	     14.37160681	     12.06109140	      7.53489202	     -5.58462326	     31.47583926	    -10.59785853	     -2.43386535	     23.27855712	     23.27855712	      6.02011816	     -7.51340649	      8.34590948	    -12.05044625	      7.17434904	      3.71317265	     31.88691228	    -18.73436386	     -1.45232031	     59.23933676	     45.67430127	      0.00000000	      0.00000000	     -1.32343704	     -7.62398402	    -14.59347482	     32.80118218	     46.01729007	      0.00000000	      0.00000000
     16.11800000	     -1.99015404	     -4.06581382	      6.42333224	      1.02311708	      0.93432071	      0.52410274	      7.51445531	      3.30578680	    -19.12547181	     14.20025643	     14.20025643	     12.28069442	      7.51843800	     -5.66073922	     31.26365211	    -10.36365458	     -2.61703543	     20.89999733	     20.89999733	      5.85455495	     -5.59436368	      8.46679564	    -12.06131068	      7.24653520	      3.69843691	     32.69897393	    -18.52289185	     -1.48074788	     59.83558780	     45.65615001	      0.00000000	      0.00000000	     -1.64271394	     -7.58193541	    -14.54315933	     32.52635844	     46.00982411	      0.00000000	      0.00000000
     16.13150000	     -1.97410465	     -4.04643095	      6.47986853	      1.02252035	      0.93423323	      0.52363250	      7.06056424	      3.35000928	    -19.01842422	     14.00469058	     14.00469058	     12.50226789	      7.45301686	     -5.72433472	     31.11163119	    -10.11315955	     -2.84968391	     18.99971678	     18.99971678	      5.75188434	     -3.97286433	      8.58065414	    -12.03756770	      7.31806280	      3.66236804	     33.35561857	    -18.30228955	     -1.48020643	     60.42217089	     45.63670621	      0.00000000	      0.00000000	     -1.94157618	     -7.54169447	    -14.49915361	     32.27517708	     46.00327158	      0.00000000	      0.00000000
     16.14500000	     -1.97165851	     -4.07171212	      6.53152054	      1.02197470	      0.93409201	      0.52310521	      6.62072892	      3.43888531	    -18.91668541	     13.80536998	     13.80536998	     12.70930488	      7.38221978	     -5.77570008	     31.06303151	     -9.90870388	     -3.04943535	     17.61491893	     17.61491893	      5.71834657	     -2.75533680	      8.63533371	    -11.99158756	      7.35997919	      3.60668777	     33.89726680	    -18.12769649	     -1.47270463	     60.98583981	     45.61765603	      0.00000000	      0.00000000	     -2.20476459	     -7.47951466	    -14.46124695	     32.06206148	     45.99731109	      0.00000000	      0.00000000
     16.15850000	     -1.97328562	     -4.07980389	      6.58344824	      1.02153157	      0.93397218	      0.52237375	      6.16421742	      3.49683878	    -18.80329158	     13.59038356	     13.59038356	     12.92555964	      7.31971204	     -5.81487586	     31.05714858	     -9.68670585	     -3.26913827	     16.70906246	     16.70906246	      5.74035840	     -1.94751019	      8.60732831	    -11.92647225	      7.41344439	      3.54078986	     34.33021913	    -17.99782624	     -1.46507135	     61.52262936	     45.59931256	      0.00000000	      0.00000000	     -2.46113412	     -7.42845360	    -14.43523042	     31.88111004	     45.99222597	      0.00000000	      0.00000000
     16.17200000	     -1.91983924	     -4.04457432	      6.61504697	      1.02127889	      0.93398518	      0.52157434	      5.57226006	      3.53494142	    -18.66833065	     13.26119084	     13.26119084	     13.12027134	      7.31536899	     -5.82398710	     30.95309372	     -9.45012884	     -3.60304072	     16.16943056	     16.16943056	      5.77300619	     -1.41741406	      8.47954497	    -11.91118194	      7.37937917	      3.39131956	     34.59457434	    -17.79964383	     -1.41941696	     62.16858289	     45.57499174	      0.00000000	      0.00000000	     -2.73506260	     -7.40128577	    -14.42088145	     31.66507966	     45.98943102	      0.00000000	      0.00000000
     16.18550000	     -1.84373640	     -4.06057492	      6.63778012	      1.02123530	      0.93392137	      0.52069423	      4.91428395	      3.63114561	    -18.54726662	     12.87437877	     12.87437877	     13.31494621	      7.37762973	     -5.83520637	     30.87721381	     -9.27505345	     -3.84873286	     16.11846232	     16.11846232	      5.85315951	     -1.26885764	      8.15938876	    -11.88269743	      7.40369039	      3.25564077	     34.64615556	    -17.63757655	     -1.34056444	     62.94293131	     45.54371412	      0.00000000	      0.00000000	     -2.95754801	     -7.39216083	    -14.42844713	     31.49179486	     45.99173003	      0.00000000	      0.00000000
     16.19900000	     -1.90162254	     -4.08350831	      6.61946123	      1.02117152	      0.93359371	      0.51966781	      4.54953455	      3.64677790	    -18.45850349	     12.79485286	     12.79485286	     13.61784562	      7.40901097	     -5.91474666	     30.84270481	     -9.07982145	     -4.00205036	     16.23874481	     16.23874481	      5.88738630	     -1.41145673	      8.08803822	    -11.69850682	      7.39717272	      3.29174377	     34.65823835	    -17.66349448	     -1.34277971	     63.08216010	     45.53883340	      0.00000000	      0.00000000	     -3.14628008	     -7.31805311	    -14.43203208	     31.41749357	     45.98975916	      0.00000000	      0.00000000
     16.21250000	     -1.87176526	     -4.06047081	      6.50855924	      1.02143700	      0.93329994	      0.51864757	      4.00458758	      3.63647406	    -18.29118746	     12.60236593	     12.60236593	     13.92299949	      7.55358653	     -5.96489032	     30.65529479	     -8.89984210	     -4.15608525	     16.69147708	     16.69147708	      5.92385911	     -1.79789721	      7.93356243	    -11.57739912	      7.30859665	      3.25624318	     34.52385516	    -17.62726526	     -1.31531497	     63.35814968	     45.52722914	      0.00000000	      0.00000000	     -3.43358950	     -7.25019500	    -14.44751428	     31.30273360	     45.98841214	      0.00000000	      0.00000000
     16.22600000	     -1.82373817	     -4.12612417	      6.41121350	      1.02184057	      0.93290313	      0.51752493	      3.44311913	      3.71173483	    -18.18241913	     12.41426564	     12.41426564	     14.21228548	      7.74093999	     -6.00679344	     30.37703076	     -8.78978798	     -4.17123671	     17.28336674	     17.28336674	      5.89208541	     -2.25916503	      7.78215931	    -11.46052068	      7.31209707	      3.20019528	     34.29542304	    -17.56961050	     -1.26719114	     63.67803364	     45.51288627	      0.00000000	      0.00000000	     -3.65170869	     -7.23383228	    -14.47806082	     31.23956939	     45.99052542	      0.00000000	      0.00000000
